<svg xmlns="http://www.w3.org/2000/svg"  viewBox="0 0 48 48" width="48px" height="48px"><path fill="#513620" d="M10.824,37.821c0.878-0.293,1.756-0.586,2.633-0.879c0.204,1.321,0.407,2.642,0.611,3.963 c0.938-0.902,1.461-0.823,2.217-1.883c0.424,0.797,0.819,1.315,1.201,2.009c1.91-1.861,2.934-5.258,3.126-7.919 c-1.609-1.148-3.408-2.028-5.302-2.593c-0.695-0.207-2.07-0.562-2.64,0.104c-0.415,0.485-0.168,1.521-0.203,2.104 C12.413,33.639,11.301,37.662,10.824,37.821z"/><path fill="#010101" d="M17.485,41.532c-0.024,0-0.049-0.002-0.073-0.006c-0.155-0.022-0.29-0.116-0.365-0.253 c-0.169-0.309-0.342-0.582-0.519-0.861c-0.105-0.168-0.213-0.338-0.322-0.519c-0.302,0.301-0.583,0.481-0.858,0.658 c-0.282,0.182-0.574,0.369-0.933,0.714c-0.135,0.13-0.329,0.173-0.507,0.113c-0.177-0.06-0.306-0.213-0.334-0.397l-0.521-3.377 l-2.069,0.69c-0.001,0-0.001,0.001-0.002,0.001c-0.261,0.089-0.544-0.055-0.633-0.316c-0.075-0.227,0.021-0.469,0.217-0.587 c0.385-0.491,1.352-3.84,1.403-4.694c0.009-0.148-0.005-0.331-0.018-0.526c-0.04-0.611-0.09-1.371,0.339-1.872 c0.817-0.958,2.583-0.432,3.162-0.259c1.952,0.582,3.786,1.479,5.45,2.665c0.143,0.102,0.222,0.27,0.209,0.443 c-0.183,2.506-1.15,6.168-3.277,8.241C17.74,41.482,17.615,41.532,17.485,41.532z M16.285,38.522c0.011,0,0.021,0,0.032,0.001 c0.173,0.012,0.328,0.111,0.409,0.265c0.224,0.419,0.438,0.76,0.647,1.091c0.067,0.106,0.135,0.212,0.2,0.319 c1.465-1.762,2.303-4.58,2.516-6.841c-1.512-1.042-3.167-1.835-4.923-2.357c-1.495-0.446-1.971-0.225-2.117-0.051 c-0.164,0.191-0.127,0.75-0.101,1.157c0.016,0.241,0.028,0.467,0.018,0.651c-0.016,0.27-0.491,2.632-1.101,4.188l1.433-0.479 c0.139-0.045,0.291-0.03,0.419,0.048c0.125,0.076,0.211,0.205,0.233,0.351l0.478,3.096c0.134-0.094,0.26-0.175,0.379-0.251 c0.384-0.247,0.688-0.442,1.07-0.979C15.973,38.6,16.124,38.522,16.285,38.522z M10.665,37.347 c-0.002,0.001-0.004,0.002-0.005,0.002C10.661,37.349,10.663,37.348,10.665,37.347L10.665,37.347z"/><path fill="#513620" d="M31.662,39.565c0.287-0.946,0.785-1.827,1.447-2.561c0.124,1.661,0.969,3.256,2.273,4.291 c0.545-1.225,1.09-2.45,1.635-3.675c0.277,0.739,0.885,1.346,1.624,1.623c-0.023-3.134-0.047-6.268-0.07-9.402 c-0.001-0.119-0.011-0.257-0.109-0.325c-0.1-0.069-0.237-0.027-0.35,0.019c-1.74,0.703-3.384,1.644-4.872,2.789 c-0.546,0.42-1.121,0.886-1.783,1.11c-0.23,0.078-0.937,0.015-1.072,0.112c-0.254,0.183-0.118,0.701-0.088,1.029 C30.458,36.301,30.919,37.998,31.662,39.565z"/><path fill="#010101" d="M35.383,41.795c-0.111,0-0.222-0.037-0.311-0.108c-1.094-0.868-1.893-2.11-2.258-3.461 c-0.288,0.463-0.516,0.964-0.674,1.484c-0.061,0.197-0.235,0.338-0.441,0.354c-0.219,0.014-0.401-0.099-0.489-0.285 c-0.768-1.621-1.243-3.356-1.411-5.156l-0.022-0.177c-0.054-0.391-0.137-0.98,0.315-1.306c0.196-0.142,0.46-0.148,0.826-0.159 c0.122-0.003,0.326-0.009,0.388-0.023c0.524-0.178,1.023-0.563,1.506-0.935l0.123-0.095c1.525-1.174,3.204-2.135,4.989-2.856 c0.121-0.047,0.488-0.197,0.823,0.035c0.319,0.221,0.322,0.604,0.323,0.731l0.07,9.401c0.001,0.165-0.078,0.319-0.214,0.414 c-0.135,0.094-0.306,0.114-0.461,0.059c-0.541-0.202-1.021-0.555-1.387-1.001l-1.239,2.787c-0.063,0.142-0.188,0.246-0.338,0.282 C35.463,41.79,35.423,41.795,35.383,41.795z M33.109,36.504c0.055,0,0.109,0.009,0.162,0.027c0.189,0.064,0.321,0.236,0.337,0.436 c0.097,1.3,0.682,2.565,1.597,3.497l1.354-3.047c0.082-0.185,0.274-0.283,0.472-0.297c0.203,0.006,0.382,0.134,0.453,0.324 c0.135,0.356,0.362,0.676,0.649,0.925l-0.062-8.274c-1.648,0.691-3.153,1.568-4.528,2.626l-0.121,0.094 c-0.522,0.402-1.114,0.859-1.807,1.093c-0.18,0.06-0.407,0.066-0.672,0.073c-0.06,0.002-0.14,0.004-0.212,0.008 c0.004,0.101,0.022,0.234,0.035,0.319l0.027,0.22c0.12,1.286,0.407,2.536,0.855,3.73c0.291-0.575,0.658-1.112,1.088-1.589 C32.835,36.562,32.971,36.504,33.109,36.504z"/><path fill="#fcbf95" d="M11.533,33.529c-0.956-1.216-1.753-2.556-2.366-3.976c-0.432-1.001-0.776-2.062-0.793-3.153 C8.357,25.31,8.7,24.179,9.477,23.414c0.778-0.765,2.027-1.082,3.009-0.608c0.851,0.411,1.36,1.3,1.715,2.175 c1.006,2.479,1.189,5.285,0.514,7.874c-0.094,0.362-0.216,0.737-0.492,0.989C13.671,34.349,12.638,34.851,11.533,33.529z"/><path fill="#010101" d="M13.019,34.873c-0.043,0-0.086-0.001-0.131-0.004c-0.623-0.043-1.208-0.386-1.738-1.021 l-0.009-0.012c-0.982-1.249-1.801-2.624-2.433-4.086c-0.553-1.282-0.817-2.344-0.834-3.343c-0.021-1.327,0.437-2.548,1.253-3.35 c0.975-0.958,2.445-1.248,3.577-0.702c1.082,0.523,1.638,1.642,1.96,2.438c1.049,2.581,1.239,5.489,0.535,8.188 c-0.115,0.443-0.273,0.899-0.639,1.232C14.225,34.521,13.691,34.873,13.019,34.873z M11.922,33.213 c0.347,0.414,0.694,0.635,1.034,0.658c0.376,0.018,0.718-0.2,0.931-0.396c0.182-0.166,0.273-0.473,0.346-0.747 c0.649-2.49,0.474-5.175-0.494-7.559c-0.415-1.022-0.882-1.63-1.47-1.914c-0.743-0.359-1.771-0.144-2.44,0.515 c-0.622,0.612-0.97,1.567-0.954,2.622c0.014,0.863,0.253,1.805,0.752,2.962C10.223,30.735,10.995,32.033,11.922,33.213z"/><path fill="#fcbf95" d="M37.202,34.232c-0.465,0.402-1.072,0.8-1.651,0.594c-0.555-0.197-0.788-0.851-0.874-1.434 c-0.284-1.906,0.302-3.642,0.878-5.427c0.358-1.108,0.612-2.705,1.547-3.508c0.972-0.834,2.614-0.504,3.37,0.474 c0.966,1.25,0.603,3.211,0.121,4.571C39.937,31.354,38.674,32.959,37.202,34.232z"/><path fill="#010101" d="M35.878,35.383c-0.161,0-0.326-0.025-0.494-0.084c-0.642-0.229-1.057-0.861-1.201-1.831 c-0.294-1.972,0.288-3.772,0.851-5.513l0.046-0.142c0.072-0.227,0.141-0.474,0.212-0.729c0.295-1.064,0.63-2.271,1.485-3.005 c0.525-0.451,1.235-0.657,1.992-0.58c0.834,0.085,1.618,0.507,2.099,1.128c1.185,1.531,0.632,3.818,0.197,5.044 c-0.629,1.774-1.852,3.481-3.535,4.938l0,0C37.287,34.82,36.637,35.383,35.878,35.383z M38.459,24.484 c-0.4,0-0.762,0.123-1.032,0.354c-0.624,0.535-0.915,1.585-1.172,2.512c-0.075,0.271-0.147,0.531-0.225,0.77l-0.046,0.143 c-0.552,1.706-1.072,3.317-0.813,5.058c0.04,0.267,0.174,0.902,0.548,1.036c0.271,0.091,0.662-0.074,1.156-0.502l0,0 c1.553-1.344,2.676-2.905,3.246-4.517c0.296-0.833,0.883-2.9-0.045-4.099c-0.312-0.402-0.851-0.688-1.409-0.745 C38.597,24.487,38.527,24.484,38.459,24.484z"/><path fill="#fcbf95" d="M15.021,37.298c3.087,5.298,6.842,8.106,10.277,8.106c3,0,9.245-5.13,10.66-10.787 c1-4,2.16-11.336,0.694-15.063c-2.108-5.362-6.155-8.629-11.91-8.36c-4.243,0.198-10.327,3.006-11.698,7.653 c-0.611,2.072-0.121,5.254-0.118,7.398C12.931,29.614,13.314,34.368,15.021,37.298z"/><path fill="#010101" d="M25.298,45.904c-3.712,0-7.614-3.045-10.708-8.354c-1.873-3.215-2.16-8.462-2.164-11.304 c-0.001-0.615-0.043-1.316-0.087-2.052c-0.109-1.845-0.233-3.935,0.225-5.488c1.375-4.661,7.38-7.788,12.154-8.011 c5.684-0.27,10.096,2.815,12.399,8.676c1.882,4.786-0.408,14.299-0.675,15.368C34.955,40.686,28.444,45.904,25.298,45.904z M15.453,37.046c2.91,4.994,6.498,7.858,9.845,7.858c2.849,0,8.832-5.041,10.174-10.408c0.941-3.764,2.15-11.107,0.715-14.759 c-2.136-5.432-6.205-8.288-11.422-8.043c-3.864,0.181-9.921,2.817-11.242,7.295c-0.409,1.385-0.29,3.383-0.186,5.146 c0.045,0.757,0.088,1.478,0.089,2.11C13.43,28.985,13.698,34.034,15.453,37.046L15.453,37.046z"/><path fill="#513620" d="M20.957,14.599c-3.941,3.213-8.559,9.361-8.894,14.647c-1.438-2.608-1.128-4.166-1.702-6.545 c-1.606,0.415-2.394,1.177-3.351,2.968c-0.814-3.889-0.364-7.121,1.75-9.422c-0.553-1.069-1.08-2.297-1.032-3.525 c3.255-0.819,2.872-1.091,5.553-2.149c-0.957-0.512-1.532-1.842-1.723-2.815c4.117,0.409,5.44-2.553,10.388-2.508 c-0.287-0.819-0.622-0.87-1.005-2.098c1.819,0.665,4,0.301,5.557,1.893c1.433-1.177,3.252-1.535,4.736-2.2 c0.096,1.74,0.703,1.743,0.793,3.116c3.064,0.256,7.968,4.032,9.644,6.658c-0.718,0.102-1.041-0.14-2.441,0.409 c1.717,2.432,3.064,6.96,3.83,10.081c-0.766-0.307-1.532-0.665-2.415-1.08c0.335,3.326-0.698,4.648-1.991,7.672 c-0.349-3.02-2.27-7.928-4.281-10.793c-0.011,0.296-0.106,1.046-0.234,1.626c-1.553-2.083-5.181-5.047-6.734-7.13 c0.362,1.834,0.255,1.774,0.415,3.139c-0.95-0.929-2.816-1.937-3.766-2.866c-0.024,0.691-0.207,1.015-0.064,2.729 C22.585,14.872,20.957,14.599,20.957,14.599z"/><path fill="#010101" d="M38.653,30.202c-0.023,0-0.048-0.002-0.072-0.005c-0.224-0.033-0.398-0.213-0.425-0.438 c-0.301-2.602-1.805-6.623-3.466-9.43c-0.021,0.107-0.042,0.213-0.063,0.313c-0.042,0.191-0.191,0.34-0.383,0.382 c-0.193,0.038-0.39-0.033-0.507-0.19c-0.752-1.01-2.056-2.279-3.315-3.507c-0.771-0.751-1.56-1.519-2.238-2.244 c0.015,0.145,0.025,0.281,0.037,0.427c0.021,0.251,0.044,0.54,0.096,0.975c0.024,0.21-0.086,0.414-0.276,0.507 s-0.419,0.057-0.57-0.091c-0.444-0.435-1.143-0.915-1.818-1.379c-0.405-0.279-0.818-0.563-1.192-0.848 c-0.031,0.365-0.042,0.851,0.028,1.691c0.018,0.213-0.102,0.414-0.298,0.5c-0.195,0.087-0.425,0.037-0.569-0.121 c-0.987-1.079-2.086-1.477-2.536-1.602c-4.032,3.363-8.211,9.236-8.521,14.135c-0.014,0.223-0.173,0.408-0.39,0.457 c-0.221,0.045-0.44-0.053-0.547-0.247c-1.016-1.843-1.197-3.18-1.39-4.596c-0.068-0.498-0.138-1.008-0.247-1.556 c-1.09,0.389-1.733,1.063-2.537,2.568c-0.099,0.186-0.296,0.285-0.513,0.26c-0.208-0.03-0.375-0.187-0.418-0.393 c-0.853-4.073-0.301-7.3,1.64-9.6c-0.489-0.988-0.98-2.221-0.933-3.469c0.009-0.222,0.163-0.411,0.378-0.465 c2.005-0.504,2.592-0.794,3.404-1.196c0.356-0.177,0.746-0.37,1.297-0.607c-0.671-0.719-1.079-1.761-1.239-2.579 c-0.031-0.155,0.014-0.316,0.12-0.433c0.107-0.117,0.263-0.175,0.42-0.161c1.91,0.191,3.165-0.392,4.609-1.067 c1.314-0.613,2.785-1.3,4.933-1.423c-0.009-0.014-0.018-0.027-0.026-0.042c-0.198-0.313-0.423-0.667-0.66-1.427 c-0.057-0.182-0.005-0.38,0.133-0.511c0.138-0.132,0.336-0.175,0.517-0.108c0.584,0.213,1.215,0.314,1.883,0.42 c1.214,0.193,2.465,0.392,3.532,1.289c0.97-0.695,2.045-1.081,3.087-1.456c0.489-0.176,0.968-0.347,1.415-0.547 c0.149-0.067,0.324-0.057,0.464,0.029c0.141,0.085,0.23,0.235,0.239,0.399c0.046,0.833,0.213,1.203,0.39,1.593 c0.139,0.307,0.28,0.622,0.357,1.104c3.162,0.533,7.892,4.138,9.611,6.835c0.091,0.143,0.104,0.323,0.032,0.478 s-0.216,0.262-0.384,0.286c-0.244,0.034-0.448,0.031-0.656,0.035c-0.304-0.005-0.591-0.002-1.085,0.142 c1.676,2.722,2.927,7.18,3.545,9.7c0.045,0.182-0.016,0.374-0.157,0.497c-0.142,0.123-0.341,0.157-0.515,0.086 c-0.536-0.215-1.064-0.451-1.672-0.732c0.079,2.305-0.559,3.693-1.407,5.538c-0.213,0.464-0.442,0.963-0.68,1.519 C39.033,30.085,38.852,30.202,38.653,30.202z M34.372,18.409c0.16,0,0.314,0.077,0.409,0.213c1.718,2.448,3.377,6.335,4.079,9.393 c0.008-0.018,0.017-0.034,0.024-0.052c0.948-2.063,1.521-3.309,1.262-5.882c-0.019-0.179,0.062-0.354,0.208-0.458 c0.147-0.104,0.338-0.121,0.502-0.044c0.55,0.259,1.025,0.481,1.47,0.679c-0.709-2.714-1.944-6.726-3.506-8.938 c-0.089-0.126-0.115-0.285-0.07-0.432c0.044-0.147,0.153-0.266,0.296-0.322c0.796-0.312,1.286-0.39,1.674-0.409 c-1.99-2.5-6.181-5.482-8.735-5.695c-0.246-0.021-0.441-0.219-0.457-0.466c-0.035-0.551-0.159-0.824-0.315-1.171 c-0.146-0.324-0.308-0.68-0.403-1.26c-0.279,0.108-0.565,0.211-0.855,0.315c-1.089,0.391-2.215,0.796-3.138,1.554 c-0.201,0.164-0.493,0.148-0.675-0.037c-0.902-0.923-2.067-1.108-3.302-1.305c-0.345-0.055-0.695-0.11-1.045-0.184 c0.059,0.103,0.116,0.194,0.175,0.287c0.15,0.237,0.307,0.483,0.45,0.892c0.054,0.154,0.03,0.324-0.065,0.457 c-0.095,0.133-0.22,0.229-0.411,0.209c-2.337-0.037-3.859,0.675-5.301,1.349c-1.343,0.627-2.607,1.21-4.423,1.197 c0.257,0.763,0.707,1.519,1.299,1.835c0.172,0.092,0.275,0.275,0.264,0.47c-0.011,0.194-0.134,0.365-0.315,0.437 c-0.968,0.382-1.522,0.656-2.012,0.898c-0.813,0.402-1.415,0.7-3.222,1.172c0.062,1.019,0.519,2.033,0.973,2.908 c0.097,0.187,0.066,0.414-0.076,0.568c-1.68,1.827-2.301,4.407-1.854,7.681c0.805-1.149,1.654-1.712,2.962-2.049 c0.128-0.033,0.268-0.014,0.382,0.055c0.115,0.069,0.198,0.181,0.229,0.312c0.192,0.797,0.287,1.497,0.379,2.173 c0.126,0.927,0.24,1.769,0.584,2.731c1.048-4.851,5.03-10.178,8.83-13.277c0.111-0.091,0.253-0.13,0.399-0.105 c0.059,0.01,1.181,0.208,2.396,1.124c0.002-0.477,0.039-0.786,0.071-1.056c0.021-0.169,0.04-0.327,0.046-0.513 c0.007-0.198,0.13-0.373,0.313-0.447c0.184-0.075,0.394-0.033,0.536,0.106c0.444,0.434,1.142,0.914,1.816,1.377 c0.333,0.229,0.672,0.462,0.989,0.696c-0.037-0.436-0.086-0.837-0.294-1.892c-0.046-0.229,0.074-0.459,0.287-0.554 c0.213-0.093,0.464-0.029,0.604,0.158c0.752,1.01,2.055,2.278,3.313,3.505c0.957,0.932,1.938,1.888,2.708,2.758 c0.025-0.206,0.042-0.378,0.045-0.478c0.008-0.215,0.152-0.4,0.358-0.461C34.277,18.416,34.325,18.409,34.372,18.409z"/><path fill="#513620" d="M17.782,27.276c-0.189,0.546-0.103,1.176,0.158,1.607c0.186,0.308,0.461,0.529,0.772,0.587 c0.312,0.058,0.658-0.056,0.921-0.328c0.407-0.423,0.549-1.181,0.388-1.761C19.698,26.216,18.281,25.832,17.782,27.276z"/><path fill="#010101" d="M18.873,29.985c-0.084,0-0.168-0.008-0.252-0.023c-0.444-0.082-0.839-0.373-1.109-0.819 c-0.354-0.587-0.432-1.364-0.202-2.029l0,0c0.282-0.818,0.884-1.304,1.576-1.271c0.729,0.022,1.395,0.601,1.616,1.406 c0.218,0.781,0.008,1.703-0.509,2.24C19.685,29.81,19.28,29.985,18.873,29.985z M18.255,27.439 c-0.132,0.381-0.086,0.857,0.112,1.186c0.119,0.195,0.277,0.325,0.436,0.354c0.158,0.027,0.332-0.041,0.47-0.184 c0.271-0.281,0.388-0.844,0.267-1.28c-0.12-0.432-0.435-0.665-0.685-0.674C18.51,26.848,18.333,27.212,18.255,27.439L18.255,27.439 z"/><g><path fill="#010101" d="M31.617,29.867c-0.211,0-0.406-0.134-0.476-0.345c-0.086-0.263,0.058-0.545,0.32-0.631 c1.897-0.621,2.62-1.82,2.768-2.328c-0.968-0.291-1.922-0.213-3.127,0.254c-1.135,0.438-1.914,0.942-2.875,1.858 c-0.199,0.189-0.516,0.184-0.707-0.018c-0.19-0.199-0.183-0.516,0.018-0.707c1.052-1.002,1.95-1.582,3.204-2.067 c1.568-0.604,2.852-0.649,4.166-0.144c0.127,0.049,0.229,0.147,0.281,0.272c0.161,0.383,0.014,0.86-0.139,1.194 c-0.197,0.431-1.015,1.895-3.278,2.636C31.721,29.859,31.669,29.867,31.617,29.867z"/></g><g><path fill="#010101" d="M18.578,29.938c-0.052,0-0.104-0.008-0.155-0.024c-2.263-0.739-3.081-2.203-3.278-2.635 c-0.152-0.333-0.3-0.811-0.14-1.193c0.053-0.126,0.154-0.225,0.281-0.273c1.318-0.506,2.602-0.461,4.166,0.144 c1.258,0.486,2.156,1.066,3.205,2.068c0.199,0.19,0.207,0.507,0.016,0.707c-0.189,0.199-0.507,0.208-0.707,0.016 c-0.957-0.914-1.736-1.418-2.875-1.857c-1.206-0.468-2.165-0.546-3.137-0.25c0.145,0.478,0.862,1.697,2.779,2.323 c0.263,0.086,0.406,0.368,0.32,0.631C18.984,29.805,18.789,29.938,18.578,29.938z"/></g><g><path fill="#513620" d="M32.421,27.412c0.08,0.591-0.083,1.217-0.364,1.609c-0.201,0.28-0.464,0.454-0.734,0.455 c-0.27,0.001-0.546-0.178-0.727-0.504c-0.281-0.506-0.291-1.305-0.072-1.867C30.962,25.978,32.209,25.848,32.421,27.412z"/><path fill="#010101" d="M31.32,29.977c-0.463,0-0.896-0.284-1.162-0.762c-0.345-0.619-0.386-1.561-0.102-2.291 c0.302-0.775,0.953-1.249,1.602-1.167c0.664,0.078,1.134,0.673,1.258,1.588c0,0.001,0,0.001,0,0.001 c0.094,0.695-0.081,1.449-0.455,1.968c-0.3,0.42-0.715,0.661-1.137,0.663C31.322,29.977,31.321,29.977,31.32,29.977z M31.518,26.748c-0.159,0-0.391,0.182-0.529,0.539c-0.172,0.442-0.152,1.089,0.043,1.441c0.096,0.172,0.214,0.248,0.289,0.248l0,0 c0.07,0,0.199-0.064,0.329-0.246c0.187-0.259,0.344-0.745,0.276-1.251l0,0c-0.065-0.48-0.24-0.713-0.386-0.73 C31.533,26.748,31.525,26.748,31.518,26.748z"/></g><g><path fill="#010101" d="M25.584,35.021c-0.257,0-0.476-0.197-0.497-0.459c-0.081-0.976-0.229-3.813,0.053-5.207 c0.055-0.271,0.317-0.445,0.59-0.391c0.271,0.055,0.445,0.319,0.391,0.59c-0.239,1.177-0.128,3.827-0.037,4.926 c0.023,0.274-0.182,0.517-0.457,0.539C25.612,35.021,25.599,35.021,25.584,35.021z"/></g><g><path fill="#010101" d="M22.713,26.437c-0.217,0-0.417-0.142-0.48-0.36c-0.258-0.893-2.269-1.635-3.469-2.08l-0.287-0.106 c-0.259-0.097-0.391-0.384-0.294-0.643c0.097-0.259,0.387-0.39,0.644-0.293l0.284,0.105c1.555,0.575,3.684,1.362,4.083,2.738 c0.076,0.266-0.076,0.543-0.341,0.62C22.806,26.431,22.759,26.437,22.713,26.437z"/></g><g><path fill="#010101" d="M27.085,26.404c-0.103,0-0.205-0.031-0.294-0.096c-0.224-0.162-0.272-0.475-0.11-0.698 c0.919-1.264,3.164-2.258,4.982-2.682c0.273-0.062,0.537,0.105,0.601,0.373c0.063,0.269-0.104,0.538-0.374,0.601 c-1.905,0.445-3.756,1.411-4.4,2.296C27.392,26.333,27.239,26.404,27.085,26.404z"/></g><g><path fill="#010101" d="M27.129,39.452c-0.073,0-0.147-0.016-0.217-0.05c-1.335-0.643-2.936-0.662-4.284-0.05 c-0.251,0.113-0.547,0.003-0.662-0.248c-0.114-0.252-0.003-0.548,0.248-0.662c1.616-0.733,3.535-0.712,5.132,0.06 c0.249,0.12,0.354,0.419,0.233,0.667C27.493,39.348,27.314,39.452,27.129,39.452z"/></g></svg>